<svg width="40" height="34" viewBox="0 0 40 34" fill="none" xmlns="http://www.w3.org/2000/svg">
<path d="M29.2776 31.9717L22.6388 26.1546L24.5493 24.4596L29.2776 28.5609L38.0657 20.9024L40 22.6392L29.2776 31.9717ZM21.8985 33.6666C18.3483 33.6666 15.403 32.5777 13.0627 30.3998C10.7224 28.2219 9.55224 25.6211 9.55224 22.5973V21.0907C6.84577 20.7838 4.57711 19.7369 2.74627 17.9499C0.915423 16.1626 0 14.0431 0 11.5913V2.01645H5.73134V0.333252H8.47761V6.08759H5.73134V4.4136H2.74627V11.5837C2.74627 13.5897 3.53831 15.2852 5.12239 16.6701C6.70647 18.0548 8.63682 18.7471 10.9134 18.7471C13.1901 18.7471 15.1244 18.0548 16.7164 16.6701C18.3085 15.2852 19.1045 13.5897 19.1045 11.5837V4.4136H16.1194V6.08759H13.3731V0.333252H16.1194V2.00724H21.8507V11.5887C21.8507 14.0423 20.9313 16.1626 19.0925 17.9499C17.2537 19.7369 14.9891 20.7838 12.2985 21.0907V22.5973C12.2985 24.9805 13.2026 27.0201 15.0109 28.7162C16.8191 30.4122 19.115 31.2602 21.8985 31.2602V33.6666Z" fill="#2E7D5C"/>
</svg>
