<svg width="281" height="289" viewBox="0 0 281 289" fill="none" xmlns="http://www.w3.org/2000/svg">
<mask id="mask0_38_172" style="mask-type:alpha" maskUnits="userSpaceOnUse" x="0" y="0" width="281" height="289">
<rect width="281" height="288.025" fill="white"/>
</mask>
<g mask="url(#mask0_38_172)">
<path d="M203.287 251.122L162.6 209.418L174.309 197.267L203.287 226.67L257.145 171.765L269 184.216L203.287 251.122ZM158.063 263.273C136.305 263.273 118.255 255.466 103.912 239.853C89.5695 224.24 82.3981 205.594 82.3981 183.916V173.115C65.8113 170.915 51.9077 163.409 40.6872 150.598C29.4667 137.785 23.8564 122.59 23.8564 105.012V36.3693H58.9814V24.3022H75.8122V65.5558H58.9814V53.5548H40.6872V104.958C40.6872 119.34 45.5413 131.495 55.2494 141.423C64.9576 151.35 76.7879 156.314 90.7403 156.314C104.693 156.314 116.547 151.35 126.304 141.423C136.061 131.495 140.94 119.34 140.94 104.958V53.5548H122.646V65.5558H105.815V24.3022H122.646V36.3033H157.771V104.994C157.771 122.584 152.136 137.785 140.867 150.598C129.597 163.409 115.718 170.915 99.2288 173.115V183.916C99.2288 201.002 104.77 215.624 115.852 227.783C126.934 239.942 141.004 246.021 158.063 246.021V263.273Z" fill="white"/>
</g>
</svg>
